{
	"asset":{
		"generator":"Khronos glTF Blender I/O v3.6.27",
		"version":"2.0"
	},
	"scene":0,
	"scenes":[
		{
			"name":"Scene",
			"nodes":[
				1,
				2,
				3,
				4
			]
		}
	],
	"nodes":[
		{
			"mesh":0,
			"name":"Donut"
		},
		{
			"children":[
				0
			],
			"mesh":1,
			"name":"Icing",
			"rotation":[
				-0.17223596572875977,
				0.3249404728412628,
				0.47573205828666687,
				0.7990165948867798
			]
		},
		{
			"mesh":2,
			"name":"Sprinkle",
			"translation":[
				-2.681687831878662,
				0.04899170994758606,
				-10.855358123779297
			]
		},
		{
			"mesh":3,
			"name":"Sprinkle.001",
			"translation":[
				-4.620896339416504,
				0.08852005004882812,
				-10.504316329956055
			]
		},
		{
			"mesh":2,
			"name":"Sprinkle.002",
			"translation":[
				-4.229884147644043,
				-0.1140742301940918,
				-10.570652961730957
			]
		}
	],
	"animations":[
		{
			"channels":[
				{
					"sampler":0,
					"target":{
						"node":1,
						"path":"rotation"
					}
				}
			],
			"name":"IcingAction",
			"samplers":[
				{
					"input":16,
					"interpolation":"LINEAR",
					"output":17
				}
			]
		},
		{
			"channels":[
				{
					"sampler":0,
					"target":{
						"node":0,
						"path":"rotation"
					}
				}
			],
			"name":"DonutAction",
			"samplers":[
				{
					"input":18,
					"interpolation":"LINEAR",
					"output":19
				}
			]
		}
	],
	"materials":[
		{
			"doubleSided":true,
			"name":"Material.002",
			"pbrMetallicRoughness":{
				"baseColorTexture":{
					"index":0
				},
				"metallicFactor":0,
				"roughnessFactor":0.5
			}
		},
		{
			"doubleSided":true,
			"name":"Material.001",
			"pbrMetallicRoughness":{
				"baseColorFactor":[
					0.8000000715255737,
					0.18713229894638062,
					0.6412433981895447,
					1
				],
				"metallicFactor":0,
				"roughnessFactor":0.14705879986286163
			}
		},
		{
			"doubleSided":true,
			"name":"Material.003",
			"pbrMetallicRoughness":{
				"metallicFactor":0,
				"roughnessFactor":0.5
			}
		}
	],
	"meshes":[
		{
			"name":"Torus.005",
			"primitives":[
				{
					"attributes":{
						"POSITION":0,
						"NORMAL":1,
						"TEXCOORD_0":2
					},
					"indices":3,
					"material":0
				}
			]
		},
		{
			"name":"Torus.006",
			"primitives":[
				{
					"attributes":{
						"POSITION":4,
						"NORMAL":5,
						"TEXCOORD_0":6
					},
					"indices":7,
					"material":1
				}
			]
		},
		{
			"name":"Cylinder",
			"primitives":[
				{
					"attributes":{
						"POSITION":8,
						"NORMAL":9,
						"TEXCOORD_0":10
					},
					"indices":11,
					"material":2
				}
			]
		},
		{
			"name":"Cylinder.001",
			"primitives":[
				{
					"attributes":{
						"POSITION":12,
						"NORMAL":13,
						"TEXCOORD_0":14
					},
					"indices":15
				}
			]
		}
	],
	"textures":[
		{
			"sampler":0,
			"source":0
		}
	],
	"images":[
		{
			"bufferView":4,
			"mimeType":"image/png",
			"name":"Donut Color"
		}
	],
	"accessors":[
		{
			"bufferView":0,
			"componentType":5126,
			"count":10465,
			"max":[
				1.6689049005508423,
				0.7562095522880554,
				1.6809030771255493
			],
			"min":[
				-1.6864852905273438,
				-0.7321643829345703,
				-1.6822905540466309
			],
			"type":"VEC3"
		},
		{
			"bufferView":1,
			"componentType":5126,
			"count":10465,
			"type":"VEC3"
		},
		{
			"bufferView":2,
			"componentType":5126,
			"count":10465,
			"type":"VEC2"
		},
		{
			"bufferView":3,
			"componentType":5123,
			"count":61440,
			"type":"SCALAR"
		},
		{
			"bufferView":5,
			"componentType":5126,
			"count":11784,
			"max":[
				1.7523648738861084,
				0.8350045680999756,
				1.728973388671875
			],
			"min":[
				-1.7474935054779053,
				-0.5454839468002319,
				-1.7764753103256226
			],
			"type":"VEC3"
		},
		{
			"bufferView":6,
			"componentType":5126,
			"count":11784,
			"type":"VEC3"
		},
		{
			"bufferView":7,
			"componentType":5126,
			"count":11784,
			"type":"VEC2"
		},
		{
			"bufferView":8,
			"componentType":5123,
			"count":70272,
			"type":"SCALAR"
		},
		{
			"bufferView":9,
			"componentType":5126,
			"count":91,
			"max":[
				0.15693064033985138,
				0.0552675686776638,
				0.08286720514297485
			],
			"min":[
				-0.15693064033985138,
				-0.0942106693983078,
				-0.08286720514297485
			],
			"type":"VEC3"
		},
		{
			"bufferView":10,
			"componentType":5126,
			"count":91,
			"type":"VEC3"
		},
		{
			"bufferView":11,
			"componentType":5126,
			"count":91,
			"type":"VEC2"
		},
		{
			"bufferView":12,
			"componentType":5123,
			"count":348,
			"type":"SCALAR"
		},
		{
			"bufferView":13,
			"componentType":5126,
			"count":92,
			"max":[
				0.15693064033985138,
				0.10586768388748169,
				0.08286720514297485
			],
			"min":[
				-0.5059953927993774,
				-0.0712951272726059,
				-0.18395885825157166
			],
			"type":"VEC3"
		},
		{
			"bufferView":14,
			"componentType":5126,
			"count":92,
			"type":"VEC3"
		},
		{
			"bufferView":15,
			"componentType":5126,
			"count":92,
			"type":"VEC2"
		},
		{
			"bufferView":16,
			"componentType":5123,
			"count":348,
			"type":"SCALAR"
		},
		{
			"bufferView":17,
			"componentType":5126,
			"count":150,
			"max":[
				5
			],
			"min":[
				0.03333333333333333
			],
			"type":"SCALAR"
		},
		{
			"bufferView":18,
			"componentType":5126,
			"count":150,
			"type":"VEC4"
		},
		{
			"bufferView":19,
			"componentType":5126,
			"count":2,
			"max":[
				5
			],
			"min":[
				0.03333333333333333
			],
			"type":"SCALAR"
		},
		{
			"bufferView":20,
			"componentType":5126,
			"count":2,
			"type":"VEC4"
		}
	],
	"bufferViews":[
		{
			"buffer":0,
			"byteLength":125580,
			"byteOffset":0,
			"target":34962
		},
		{
			"buffer":0,
			"byteLength":125580,
			"byteOffset":125580,
			"target":34962
		},
		{
			"buffer":0,
			"byteLength":83720,
			"byteOffset":251160,
			"target":34962
		},
		{
			"buffer":0,
			"byteLength":122880,
			"byteOffset":334880,
			"target":34963
		},
		{
			"buffer":0,
			"byteLength":60115,
			"byteOffset":457760
		},
		{
			"buffer":0,
			"byteLength":141408,
			"byteOffset":517876,
			"target":34962
		},
		{
			"buffer":0,
			"byteLength":141408,
			"byteOffset":659284,
			"target":34962
		},
		{
			"buffer":0,
			"byteLength":94272,
			"byteOffset":800692,
			"target":34962
		},
		{
			"buffer":0,
			"byteLength":140544,
			"byteOffset":894964,
			"target":34963
		},
		{
			"buffer":0,
			"byteLength":1092,
			"byteOffset":1035508,
			"target":34962
		},
		{
			"buffer":0,
			"byteLength":1092,
			"byteOffset":1036600,
			"target":34962
		},
		{
			"buffer":0,
			"byteLength":728,
			"byteOffset":1037692,
			"target":34962
		},
		{
			"buffer":0,
			"byteLength":696,
			"byteOffset":1038420,
			"target":34963
		},
		{
			"buffer":0,
			"byteLength":1104,
			"byteOffset":1039116,
			"target":34962
		},
		{
			"buffer":0,
			"byteLength":1104,
			"byteOffset":1040220,
			"target":34962
		},
		{
			"buffer":0,
			"byteLength":736,
			"byteOffset":1041324,
			"target":34962
		},
		{
			"buffer":0,
			"byteLength":696,
			"byteOffset":1042060,
			"target":34963
		},
		{
			"buffer":0,
			"byteLength":600,
			"byteOffset":1042756
		},
		{
			"buffer":0,
			"byteLength":2400,
			"byteOffset":1043356
		},
		{
			"buffer":0,
			"byteLength":8,
			"byteOffset":1045756
		},
		{
			"buffer":0,
			"byteLength":32,
			"byteOffset":1045764
		}
	],
	"samplers":[
		{
			"magFilter":9729,
			"minFilter":9987
		}
	],
	"buffers":[
		{
			"byteLength":1045796,
			"uri":"data:application/octet-stream;base64,"
		}
	]
}
